<?xml version="1.0" encoding="utf-8"?>
<!-- Generator: Adobe Illustrator 20.0.0, SVG Export Plug-In . SVG Version: 6.00 Build 0)  -->
<svg version="1.1" id="Layer_1" xmlns="http://www.w3.org/2000/svg" xmlns:xlink="http://www.w3.org/1999/xlink" x="0px" y="0px"
	 viewBox="0 0 24.5 14.7" style="enable-background:new 0 0 24.5 14.7;" xml:space="preserve">
<g>
	<rect x="18.3" y="0" style="fill:#EC2224;" width="6.1" height="14.7"/>
	<rect x="0" y="0" style="fill:#EC2224;" width="6.1" height="14.7"/>
	<path style="fill:#FFFFFF;" d="M6.1,0v14.7h12.2V0H6.1z M14.6,9.6l0.2,0.7c-0.8-0.1-1.5-0.2-2.3-0.3c-0.1,0-0.2,0.1-0.2,0.2
		l0.1,2.5H12l0.1-2.5c0-0.1-0.1-0.2-0.2-0.2c-0.8,0.1-1.5,0.2-2.3,0.3l0.2-0.7c0-0.1,0-0.3-0.1-0.3l-2.3-2L7.9,7C8.1,7,8,6.8,8,6.5
		L7.6,5.2l1.3,0.3c0.1,0,0.2-0.1,0.2-0.1l0.2-0.6L10.4,6c0.1,0.2,0.5,0.2,0.4-0.3l-0.5-2.5l0.6,0.3c0.2,0.1,0.3,0.1,0.4-0.1l0.8-1.6
		L13,3.4c0.1,0.2,0.3,0.2,0.4,0.1l0.6-0.3l-0.5,2.5C13.5,6.2,13.8,6.2,14,6L15,4.7l0.2,0.6c0,0.1,0.1,0.2,0.2,0.1l1.3-0.3l-0.4,1.3
		C16.3,6.8,16.3,7,16.5,7L17,7.3l-2.3,2C14.6,9.3,14.5,9.4,14.6,9.6z"/>
	<path style="fill:#EC2224;" d="M14.7,9.2l2.3-2L16.5,7c-0.2-0.1-0.2-0.2-0.1-0.5l0.4-1.3l-1.3,0.3c-0.1,0-0.2-0.1-0.2-0.1L15,4.7
		L14,6c-0.1,0.2-0.5,0.2-0.4-0.3l0.5-2.5l-0.6,0.3c-0.2,0.1-0.3,0.1-0.4-0.1l-0.8-1.6l-0.8,1.6c-0.1,0.2-0.3,0.2-0.4,0.1l-0.6-0.3
		l0.5,2.5c0.1,0.5-0.2,0.5-0.4,0.3L9.3,4.7L9.2,5.3c0,0.1-0.1,0.2-0.2,0.1L7.6,5.2L8,6.5C8,6.8,8.1,7,7.9,7L7.4,7.3l2.3,2
		c0.1,0.1,0.1,0.2,0.1,0.3l-0.2,0.7c0.8-0.1,1.5-0.2,2.3-0.3c0.1,0,0.2,0.1,0.2,0.2L12,12.6h0.4l-0.1-2.5c0-0.1,0.1-0.2,0.2-0.2
		c0.8,0.1,1.5,0.2,2.3,0.3l-0.2-0.7C14.5,9.4,14.6,9.3,14.7,9.2z"/>
</g>
</svg>
