<?xml version="1.0" encoding="utf-8"?>
<!-- Generator: Adobe Illustrator 20.0.0, SVG Export Plug-In . SVG Version: 6.00 Build 0)  -->
<svg version="1.1" id="Layer_2" xmlns="http://www.w3.org/2000/svg" xmlns:xlink="http://www.w3.org/1999/xlink" x="0px" y="0px"
	 viewBox="0 0 24.456 14.672" style="enable-background:new 0 0 24.456 14.672;" xml:space="preserve">
<g>
	<rect x="9.781" y="-0.001" style="fill:#CB2026;" width="14.672" height="1.129"/>
	<rect x="9.781" y="2.256" style="fill:#CB2026;" width="14.672" height="1.129"/>
	<rect x="9.781" y="4.513" style="fill:#CB2026;" width="14.672" height="1.129"/>
	<rect x="9.781" y="6.77" style="fill:#CB2026;" width="14.672" height="1.129"/>
	<rect x="0" y="9.027" style="fill:#CB2026;" width="24.453" height="1.129"/>
	<rect x="0" y="11.285" style="fill:#CB2026;" width="24.453" height="1.129"/>
	<rect x="0" y="13.542" style="fill:#CB2026;" width="24.453" height="1.129"/>
	<rect x="9.781" y="1.127" style="fill:#FFFFFF;" width="14.672" height="1.129"/>
	<rect x="9.781" y="3.384" style="fill:#FFFFFF;" width="14.672" height="1.129"/>
	<rect x="9.781" y="5.642" style="fill:#FFFFFF;" width="14.672" height="1.129"/>
	<polygon style="fill:#FFFFFF;" points="0,7.899 0,9.027 24.453,9.027 24.453,7.899 9.781,7.899 	"/>
	<rect x="0" y="10.156" style="fill:#FFFFFF;" width="24.453" height="1.129"/>
	<rect id="_x3C_Path_x3E_" x="0" y="12.413" style="fill:#FFFFFF;" width="24.453" height="1.129"/>
	<rect id="BlueBG" x="0" y="-0.005" style="fill:#212F64;" width="9.794" height="7.9"/>
	<path style="fill:#FFFFFF;" d="M1.051,7.475L0.818,7.282L0.585,7.475l0.089-0.312L0.441,6.97h0.288l0.089-0.312L0.907,6.97h0.288
		L0.962,7.163L1.051,7.475z M0.962,5.583l0.089,0.312L0.818,5.702L0.585,5.895l0.089-0.312L0.441,5.39h0.288l0.089-0.312L0.907,5.39
		h0.288L0.962,5.583z M0.962,4.003l0.089,0.312L0.818,4.122L0.585,4.315l0.089-0.312L0.441,3.81h0.288l0.089-0.312L0.907,3.81h0.288
		L0.962,4.003z M0.962,2.423l0.089,0.312L0.818,2.542L0.585,2.735l0.089-0.312L0.441,2.23h0.288l0.089-0.312L0.907,2.23h0.288
		L0.962,2.423z M0.962,0.843l0.089,0.312L0.818,0.962L0.585,1.155l0.089-0.312L0.441,0.65h0.288l0.089-0.312L0.907,0.65h0.288
		L0.962,0.843z M1.866,6.685L1.633,6.492L1.4,6.685l0.089-0.312L1.256,6.18h0.288l0.089-0.312L1.722,6.18H2.01L1.777,6.373
		L1.866,6.685z M1.777,4.793l0.089,0.312L1.633,4.912L1.4,5.105l0.089-0.312L1.256,4.6h0.288l0.089-0.312L1.722,4.6H2.01
		L1.777,4.793z M1.777,3.213l0.089,0.312L1.633,3.332L1.4,3.525l0.089-0.312L1.256,3.02h0.288l0.089-0.312L1.722,3.02H2.01
		L1.777,3.213z M1.777,1.633l0.089,0.312L1.633,1.752L1.4,1.945l0.089-0.312L1.256,1.44h0.288l0.089-0.312L1.722,1.44H2.01
		L1.777,1.633z M2.681,7.475L2.448,7.282L2.215,7.475l0.089-0.312L2.071,6.97h0.288l0.089-0.312L2.537,6.97h0.288L2.592,7.163
		L2.681,7.475z M2.592,5.583l0.089,0.312L2.448,5.702L2.215,5.895l0.089-0.312L2.071,5.39h0.288l0.089-0.312L2.537,5.39h0.288
		L2.592,5.583z M2.592,4.003l0.089,0.312L2.448,4.122L2.215,4.315l0.089-0.312L2.071,3.81h0.288l0.089-0.312L2.537,3.81h0.288
		L2.592,4.003z M2.592,2.423l0.089,0.312L2.448,2.542L2.215,2.735l0.089-0.312L2.071,2.23h0.288l0.089-0.312L2.537,2.23h0.288
		L2.592,2.423z M2.592,0.843l0.089,0.312L2.448,0.962L2.215,1.155l0.089-0.312L2.071,0.65h0.288l0.089-0.312L2.537,0.65h0.288
		L2.592,0.843z M3.497,6.685L3.263,6.492L3.031,6.685l0.089-0.312L2.886,6.18h0.288l0.089-0.312L3.352,6.18H3.64L3.408,6.373
		L3.497,6.685z M3.408,4.793l0.089,0.312L3.263,4.912L3.031,5.105l0.089-0.312L2.886,4.6h0.288l0.089-0.312L3.352,4.6H3.64
		L3.408,4.793z M3.408,3.213l0.089,0.312L3.263,3.332L3.031,3.525l0.089-0.312L2.886,3.02h0.288l0.089-0.312L3.352,3.02H3.64
		L3.408,3.213z M3.408,1.633l0.089,0.312L3.263,1.752L3.031,1.945l0.089-0.312L2.886,1.44h0.288l0.089-0.312L3.352,1.44H3.64
		L3.408,1.633z M4.312,7.475L4.079,7.282L3.846,7.475l0.089-0.312L3.702,6.97H3.99l0.089-0.312L4.168,6.97h0.288L4.223,7.163
		L4.312,7.475z M4.223,5.583l0.089,0.312L4.079,5.702L3.846,5.895l0.089-0.312L3.702,5.39H3.99l0.089-0.312L4.168,5.39h0.288
		L4.223,5.583z M4.223,4.003l0.089,0.312L4.079,4.122L3.846,4.315l0.089-0.312L3.702,3.81H3.99l0.089-0.312L4.168,3.81h0.288
		L4.223,4.003z M4.223,2.423l0.089,0.312L4.079,2.542L3.846,2.735l0.089-0.312L3.702,2.23H3.99l0.089-0.312L4.168,2.23h0.288
		L4.223,2.423z M4.223,0.843l0.089,0.312L4.079,0.962L3.846,1.155l0.089-0.312L3.702,0.65H3.99l0.089-0.312L4.168,0.65h0.288
		L4.223,0.843z M5.127,6.685L4.894,6.492L4.661,6.685L4.75,6.373L4.517,6.18h0.288l0.089-0.312L4.983,6.18h0.288L5.038,6.373
		L5.127,6.685z M5.038,4.793l0.089,0.312L4.894,4.912L4.661,5.105L4.75,4.793L4.517,4.6h0.288l0.089-0.312L4.983,4.6h0.288
		L5.038,4.793z M5.038,3.213l0.089,0.312L4.894,3.332L4.661,3.525L4.75,3.213L4.517,3.02h0.288l0.089-0.312L4.983,3.02h0.288
		L5.038,3.213z M5.038,1.633l0.089,0.312L4.894,1.752L4.661,1.945L4.75,1.633L4.517,1.44h0.288l0.089-0.312L4.983,1.44h0.288
		L5.038,1.633z M5.942,7.475L5.709,7.282L5.476,7.475l0.089-0.312L5.332,6.97H5.62l0.089-0.312L5.798,6.97h0.288L5.853,7.163
		L5.942,7.475z M5.853,5.583l0.089,0.312L5.709,5.702L5.476,5.895l0.089-0.312L5.332,5.39H5.62l0.089-0.312L5.798,5.39h0.288
		L5.853,5.583z M5.853,4.003l0.089,0.312L5.709,4.122L5.476,4.315l0.089-0.312L5.332,3.81H5.62l0.089-0.312L5.798,3.81h0.288
		L5.853,4.003z M5.853,2.423l0.089,0.312L5.709,2.542L5.476,2.735l0.089-0.312L5.332,2.23H5.62l0.089-0.312L5.798,2.23h0.288
		L5.853,2.423z M5.853,0.843l0.089,0.312L5.709,0.962L5.476,1.155l0.089-0.312L5.332,0.65H5.62l0.089-0.312L5.798,0.65h0.288
		L5.853,0.843z M6.757,6.685L6.524,6.492L6.291,6.685L6.38,6.373L6.147,6.18h0.288l0.089-0.312L6.613,6.18h0.288L6.668,6.373
		L6.757,6.685z M6.668,4.793l0.089,0.312L6.524,4.912L6.291,5.105L6.38,4.793L6.147,4.6h0.288l0.089-0.312L6.613,4.6h0.288
		L6.668,4.793z M6.668,3.213l0.089,0.312L6.524,3.332L6.291,3.525L6.38,3.213L6.147,3.02h0.288l0.089-0.312L6.613,3.02h0.288
		L6.668,3.213z M6.668,1.633l0.089,0.312L6.524,1.752L6.291,1.945L6.38,1.633L6.147,1.44h0.288l0.089-0.312L6.613,1.44h0.288
		L6.668,1.633z M7.572,7.475L7.339,7.282L7.106,7.475l0.089-0.312L6.962,6.97H7.25l0.089-0.312L7.428,6.97h0.288L7.483,7.163
		L7.572,7.475z M7.483,5.583l0.089,0.312L7.339,5.702L7.106,5.895l0.089-0.312L6.962,5.39H7.25l0.089-0.312L7.428,5.39h0.288
		L7.483,5.583z M7.483,4.003l0.089,0.312L7.339,4.122L7.106,4.315l0.089-0.312L6.962,3.81H7.25l0.089-0.312L7.428,3.81h0.288
		L7.483,4.003z M7.483,2.423l0.089,0.312L7.339,2.542L7.106,2.735l0.089-0.312L6.962,2.23H7.25l0.089-0.312L7.428,2.23h0.288
		L7.483,2.423z M7.483,0.843l0.089,0.312L7.339,0.962L7.106,1.155l0.089-0.312L6.962,0.65H7.25l0.089-0.312L7.428,0.65h0.288
		L7.483,0.843z M8.387,6.685L8.154,6.492L7.921,6.685L8.01,6.373L7.777,6.18h0.288l0.089-0.312L8.243,6.18h0.288L8.298,6.373
		L8.387,6.685z M8.298,4.793l0.089,0.312L8.154,4.912L7.921,5.105L8.01,4.793L7.777,4.6h0.288l0.089-0.312L8.243,4.6h0.288
		L8.298,4.793z M8.298,3.213l0.089,0.312L8.154,3.332L7.921,3.525L8.01,3.213L7.777,3.02h0.288l0.089-0.312L8.243,3.02h0.288
		L8.298,3.213z M8.298,1.633l0.089,0.312L8.154,1.752L7.921,1.945L8.01,1.633L7.777,1.44h0.288l0.089-0.312L8.243,1.44h0.288
		L8.298,1.633z M9.202,7.475L8.969,7.282L8.736,7.475l0.089-0.312L8.592,6.97H8.88l0.089-0.312L9.058,6.97h0.288L9.113,7.163
		L9.202,7.475z M9.113,5.583l0.089,0.312L8.969,5.702L8.736,5.895l0.089-0.312L8.592,5.39H8.88l0.089-0.312L9.058,5.39h0.288
		L9.113,5.583z M9.113,4.003l0.089,0.312L8.969,4.122L8.736,4.315l0.089-0.312L8.592,3.81H8.88l0.089-0.312L9.058,3.81h0.288
		L9.113,4.003z M9.113,2.423l0.089,0.312L8.969,2.542L8.736,2.735l0.089-0.312L8.592,2.23H8.88l0.089-0.312L9.058,2.23h0.288
		L9.113,2.423z M9.113,0.843l0.089,0.312L8.969,0.962L8.736,1.155l0.089-0.312L8.592,0.65H8.88l0.089-0.312L9.058,0.65h0.288
		L9.113,0.843z"/>
</g>
</svg>
